<svg width="1599" height="324" viewBox="0 0 1599 324" fill="none" xmlns="http://www.w3.org/2000/svg">
<path d="M21.6719 68.7955C20.6136 68.1845 19.2603 68.5471 18.6493 69.6054C18.0383 70.6637 18.4009 72.0169 19.4592 72.6279L56.1007 93.7829C57.159 94.3939 58.5122 94.0313 59.1232 92.973C59.7343 91.9147 59.3717 90.5615 58.3134 89.9505L21.6719 68.7955Z" fill="#FF9F04"/>
<path d="M2.21267 136.992C0.990644 136.992 0 137.983 0 139.205C0 140.427 0.990644 141.418 2.21267 141.418H44.5226C45.7447 141.418 46.7353 140.427 46.7353 139.205C46.7353 137.983 45.7447 136.992 44.5226 136.992H2.21267Z" fill="#FF9F04"/>
<path d="M19.4575 205.785C18.3992 206.396 18.0366 207.749 18.6476 208.807C19.2586 209.866 20.6118 210.228 21.6701 209.617L58.3116 188.462C59.3699 187.851 59.7325 186.498 59.1215 185.44C58.5105 184.381 57.1573 184.019 56.099 184.63L19.4575 205.785Z" fill="#FF9F04"/>
<path d="M68.7924 256.738C68.1814 257.797 68.544 259.15 69.6023 259.761C70.6606 260.372 72.0139 260.009 72.6249 258.951L93.7799 222.31C94.3909 221.251 94.0283 219.898 92.97 219.287C91.9117 218.676 90.5584 219.039 89.9474 220.097L68.7924 256.738Z" fill="#FF9F04"/>
<path d="M136.993 276.191C136.993 277.413 137.983 278.404 139.205 278.404C140.427 278.404 141.418 277.413 141.418 276.191V233.881C141.418 232.659 140.427 231.669 139.205 231.669C137.983 231.669 136.993 232.659 136.993 233.881V276.191Z" fill="#FF9F04"/>
<path d="M205.786 258.948C206.397 260.007 207.75 260.369 208.808 259.758C209.867 259.147 210.229 257.794 209.618 256.736L188.463 220.094C187.852 219.036 186.499 218.673 185.441 219.284C184.382 219.895 184.02 221.248 184.631 222.307L205.786 258.948Z" fill="#FF9F04"/>
<path d="M256.736 209.612C257.795 210.223 259.148 209.86 259.759 208.802C260.37 207.743 260.007 206.39 258.949 205.779L222.308 184.624C221.249 184.013 219.896 184.376 219.285 185.434C218.674 186.492 219.037 187.846 220.095 188.457L256.736 209.612Z" fill="#FF9F04"/>
<path d="M276.197 141.412C277.42 141.412 278.41 140.421 278.41 139.199C278.41 137.977 277.42 136.986 276.197 136.986H233.888C232.666 136.986 231.675 137.977 231.675 139.199C231.675 140.421 232.666 141.412 233.888 141.412H276.197Z" fill="#FF9F04"/>
<path d="M258.948 72.6223C260.006 72.0112 260.369 70.658 259.758 69.5997C259.147 68.5414 257.793 68.1788 256.735 68.7898L220.094 89.9448C219.035 90.5558 218.673 91.909 219.284 92.9673C219.895 94.0256 221.248 94.3882 222.306 93.7772L258.948 72.6223Z" fill="#FF9F04"/>
<path d="M209.614 21.6683C210.225 20.61 209.862 19.2567 208.804 18.6457C207.746 18.0347 206.392 18.3973 205.781 19.4556L184.626 56.0971C184.015 57.1554 184.378 58.5086 185.436 59.1196C186.495 59.7307 187.848 59.3681 188.459 58.3098L209.614 21.6683Z" fill="#FF9F04"/>
<path d="M72.6234 19.4586C72.0123 18.4003 70.6591 18.0377 69.6008 18.6487C68.5425 19.2597 68.1799 20.6129 68.7909 21.6712L89.9459 58.3127C90.5569 59.371 91.9101 59.7336 92.9684 59.1226C94.0267 58.5116 94.3893 57.1584 93.7783 56.1001L72.6234 19.4586Z" fill="#FF9F04"/>
<path d="M139.205 218.463C182.978 218.463 218.463 182.978 218.463 139.205C218.463 95.432 182.978 59.947 139.205 59.947C95.4323 59.947 59.9473 95.432 59.9473 139.205C59.9473 182.978 95.4323 218.463 139.205 218.463Z" fill="#FF9F04"/>
<path d="M139.206 202.032C173.904 202.032 202.033 173.903 202.033 139.205C202.033 104.507 173.904 76.3781 139.206 76.3781C104.507 76.3781 76.3789 104.507 76.3789 139.205C76.3789 173.903 104.507 202.032 139.206 202.032Z" fill="#F9B24B"/>
<path d="M139.206 189.013C166.714 189.013 189.014 166.713 189.014 139.205C189.014 111.697 166.714 89.3965 139.206 89.3965C111.697 89.3965 89.3975 111.697 89.3975 139.205C89.3975 166.713 111.697 189.013 139.206 189.013Z" fill="#F9B24B"/>
<path d="M139.205 178.688C161.011 178.688 178.688 161.011 178.688 139.205C178.688 117.399 161.011 99.7223 139.205 99.7223C117.4 99.7223 99.7227 117.399 99.7227 139.205C99.7227 161.011 117.4 178.688 139.205 178.688Z" fill="#F9C075"/>
<path d="M139.206 170.504C156.492 170.504 170.505 156.491 170.505 139.205C170.505 121.919 156.492 107.906 139.206 107.906C121.919 107.906 107.906 121.919 107.906 139.205C107.906 156.491 121.919 170.504 139.206 170.504Z" fill="#F9C075"/>
<path d="M139.205 164.018C152.909 164.018 164.019 152.909 164.019 139.205C164.019 125.501 152.909 114.391 139.205 114.391C125.501 114.391 114.392 125.501 114.392 139.205C114.392 152.909 125.501 164.018 139.205 164.018Z" fill="#F9C075"/>
<path d="M139.205 158.879C150.071 158.879 158.879 150.071 158.879 139.205C158.879 128.339 150.071 119.531 139.205 119.531C128.34 119.531 119.531 128.339 119.531 139.205C119.531 150.071 128.34 158.879 139.205 158.879Z" fill="#FCD29F"/>
<path d="M141.418 2.21267C141.418 0.990645 140.427 0 139.205 0C137.983 0 136.992 0.990645 136.992 2.21267V44.5226C136.992 45.7446 137.983 46.7353 139.205 46.7353C140.427 46.7353 141.418 45.7446 141.418 44.5226V2.21267Z" fill="#FF9F04"/>
<path d="M109.396 19.4204C109.08 18.2401 107.866 17.5396 106.686 17.8558C105.506 18.1721 104.805 19.3854 105.122 20.5658L112.559 48.3221C112.875 49.5025 114.088 50.203 115.269 49.8867C116.449 49.5704 117.15 48.3571 116.833 47.1767L109.396 19.4204Z" fill="#FCD29F"/>
<path d="M53.5024 50.3732C52.6383 49.5091 51.2373 49.5091 50.3732 50.3732C49.5091 51.2373 49.5091 52.6382 50.3732 53.5023L70.6922 73.8213C71.5563 74.6854 72.9573 74.6854 73.8214 73.8213C74.6855 72.9572 74.6855 71.5563 73.8214 70.6922L53.5024 50.3732Z" fill="#FCD29F"/>
<path d="M20.5697 105.13C19.3894 104.814 18.1761 105.514 17.8598 106.695C17.5435 107.875 18.244 109.088 19.4244 109.405L47.1807 116.842C48.361 117.158 49.5743 116.458 49.8906 115.277C50.2069 114.097 49.5064 112.884 48.326 112.567L20.5697 105.13Z" fill="#FCD29F"/>
<path d="M19.4265 169.014C18.2461 169.33 17.5456 170.544 17.8619 171.724C18.1782 172.904 19.3915 173.605 20.5718 173.289L48.3281 165.851C49.5085 165.535 50.209 164.322 49.8927 163.141C49.5764 161.961 48.3631 161.26 47.1828 161.577L19.4265 169.014Z" fill="#FCD29F"/>
<path d="M50.3719 224.909C49.5078 225.773 49.5078 227.174 50.3719 228.038C51.236 228.902 52.637 228.902 53.5011 228.038L73.8201 207.719C74.6842 206.855 74.6842 205.454 73.8201 204.59C72.956 203.726 71.555 203.726 70.6909 204.59L50.3719 224.909Z" fill="#FCD29F"/>
<path d="M105.125 257.84C104.809 259.021 105.509 260.234 106.69 260.55C107.87 260.867 109.084 260.166 109.4 258.986L116.837 231.23C117.153 230.049 116.453 228.836 115.273 228.52C114.092 228.203 112.879 228.904 112.563 230.084L105.125 257.84Z" fill="#FCD29F"/>
<path d="M169.008 258.984C169.325 260.164 170.538 260.865 171.718 260.549C172.899 260.232 173.599 259.019 173.283 257.839L165.846 230.082C165.529 228.902 164.316 228.202 163.136 228.518C161.955 228.834 161.255 230.047 161.571 231.228L169.008 258.984Z" fill="#FCD29F"/>
<path d="M224.911 228.037C225.775 228.901 227.176 228.901 228.04 228.037C228.904 227.173 228.904 225.772 228.04 224.907L207.721 204.588C206.857 203.724 205.456 203.724 204.592 204.588C203.728 205.453 203.728 206.854 204.592 207.718L224.911 228.037Z" fill="#FCD29F"/>
<path d="M257.84 173.285C259.021 173.601 260.234 172.901 260.55 171.72C260.867 170.54 260.166 169.327 258.986 169.011L231.229 161.573C230.049 161.257 228.836 161.957 228.52 163.138C228.203 164.318 228.904 165.532 230.084 165.848L257.84 173.285Z" fill="#FCD29F"/>
<path d="M258.985 109.401C260.165 109.085 260.866 107.871 260.549 106.691C260.233 105.511 259.02 104.81 257.839 105.127L230.083 112.564C228.903 112.88 228.202 114.093 228.518 115.274C228.835 116.454 230.048 117.155 231.228 116.838L258.985 109.401Z" fill="#FCD29F"/>
<path d="M228.035 53.5006C228.899 52.6365 228.899 51.2355 228.035 50.3714C227.171 49.5073 225.77 49.5073 224.906 50.3714L204.587 70.6904C203.723 71.5545 203.723 72.9555 204.587 73.8196C205.451 74.6837 206.852 74.6837 207.716 73.8196L228.035 53.5006Z" fill="#FCD29F"/>
<path d="M173.28 20.564C173.596 19.3836 172.896 18.1703 171.715 17.8541C170.535 17.5378 169.322 18.2383 169.005 19.4186L161.568 47.1749C161.252 48.3553 161.952 49.5686 163.133 49.8849C164.313 50.2012 165.526 49.5007 165.843 48.3203L173.28 20.564Z" fill="#FCD29F"/>
<path d="M469.122 272.632C468.94 273.844 468.712 275.015 468.46 276.15C467.418 280.751 465.861 284.708 464.345 287.893C463.186 290.34 462.045 292.336 461.19 293.817C460.248 295.438 458.731 298.025 456.525 300.987C452.802 305.998 447.1 312.109 438.858 316.605C431.015 320.884 422.018 323.12 412.025 323.167C395.296 323.249 378.566 323.301 361.831 323.336C351.745 323.354 341.653 323.377 331.567 323.389C312.174 323.407 292.776 323.412 273.382 323.407H269.566C263.601 323.407 257.63 323.407 251.666 323.395H247.199C240.708 323.395 234.222 323.383 227.724 323.377C214.296 323.366 200.874 323.36 187.446 323.348C187.463 323.301 187.486 323.254 187.498 323.208C187.721 322.663 187.937 322.125 188.154 321.58C188.581 320.492 188.997 319.397 189.406 318.296C189.646 317.647 189.881 317.003 190.103 316.347C190.46 315.334 190.8 314.322 191.139 313.303C191.865 311.067 192.55 308.802 193.182 306.519C193.486 305.407 193.779 304.289 194.06 303.165C194.06 303.136 194.078 303.106 194.078 303.077C194.364 301.924 194.634 300.765 194.897 299.606C194.95 299.395 194.991 299.184 195.032 298.974C195.231 298.066 195.424 297.159 195.605 296.252C195.629 296.129 195.658 296.006 195.676 295.877C195.781 295.362 195.875 294.853 195.974 294.332C196.203 293.091 196.419 291.838 196.618 290.585C196.753 289.742 196.887 288.9 196.999 288.051C197.04 287.781 197.075 287.524 197.11 287.255C197.18 286.757 197.244 286.265 197.303 285.774C197.49 284.287 197.654 282.788 197.795 281.284C197.894 280.248 197.982 279.212 198.058 278.17C198.076 277.942 198.093 277.702 198.105 277.462C198.163 276.642 198.216 275.823 198.257 274.997C198.398 272.369 198.468 269.723 198.468 267.066C198.468 260.088 197.988 253.216 197.051 246.49C196.887 245.267 196.7 244.043 196.501 242.826C196.144 240.654 195.74 238.5 195.289 236.363C194.921 234.613 194.528 232.88 194.101 231.159C193.943 230.521 193.779 229.883 193.615 229.245C193.118 227.343 192.579 225.446 192.005 223.573C192.005 223.556 191.994 223.532 191.988 223.52C191.607 222.291 191.215 221.062 190.805 219.844C189.769 216.754 188.64 213.704 187.41 210.707C187.165 210.11 186.919 209.513 186.661 208.916C185.051 205.128 183.284 201.417 181.375 197.8C181.17 197.407 180.966 197.015 180.755 196.629C178.94 193.263 177.003 189.973 174.942 186.771C174.708 186.403 174.468 186.04 174.228 185.677C173.391 184.401 172.542 183.136 171.664 181.89C170.587 180.35 169.481 178.834 168.345 177.341C167.965 176.832 167.572 176.329 167.18 175.825C166.396 174.818 165.6 173.817 164.786 172.834C164.382 172.342 163.978 171.851 163.563 171.359C162.333 169.895 161.069 168.461 159.781 167.045C159.354 166.571 158.921 166.102 158.488 165.64C157.188 164.241 155.854 162.871 154.49 161.525C154.039 161.08 153.582 160.629 153.12 160.19C152.663 159.745 152.201 159.306 151.738 158.867C151.276 158.422 150.808 157.995 150.334 157.568C149.865 157.135 149.391 156.707 148.917 156.28C149.292 155.513 149.438 154.489 149.479 153.172C150.468 121.673 163.206 97.2169 187.574 80.0658C190.958 77.6776 194.564 75.4356 198.398 73.3342C212.2 65.7655 226.232 62.0777 240.315 61.9899C241.106 61.9899 241.896 62.0133 242.68 62.0425C252.766 62.4464 263.145 64.6123 273.781 68.581C284.229 72.4796 293.302 77.7244 301.047 84.2512C301.064 84.2687 301.076 84.2746 301.094 84.2922C301.509 84.6609 301.849 84.9712 302.089 85.1936C302.282 85.3868 302.615 85.738 303.031 86.177L303.049 86.1946C303.049 86.1946 303.06 86.2063 303.066 86.2121C303.066 86.2238 303.084 86.2297 303.09 86.2356C303.09 86.2356 303.093 86.2395 303.101 86.2473C303.101 86.2473 303.119 86.2707 303.131 86.2882C306.596 90.175 309.862 94.2375 312.912 98.4696C313.251 98.9438 313.503 99.3067 313.655 99.5174C314.738 101.051 315.804 102.608 316.828 104.189C317.086 104.581 317.343 104.979 317.589 105.377C317.8 105.705 318.005 106.032 318.209 106.36C319.011 107.625 319.79 108.907 320.539 110.206C320.727 110.516 320.908 110.827 321.089 111.143C321.447 111.763 321.792 112.378 322.137 113.004C322.36 113.396 322.576 113.783 322.787 114.175C323.191 114.918 323.589 115.662 323.975 116.405C324.198 116.827 324.414 117.242 324.631 117.664C325.497 119.349 326.323 121.053 327.125 122.78C327.324 123.207 327.523 123.64 327.716 124.073C327.95 124.588 328.184 125.115 328.412 125.642C328.898 127.076 329.361 128.534 329.8 130.009C330.204 131.379 330.684 132.298 331.351 132.854C331.503 132.983 331.661 133.088 331.831 133.187C332.001 133.281 332.182 133.357 332.381 133.416C332.674 133.504 332.996 133.562 333.341 133.58C333.458 133.58 333.575 133.591 333.704 133.591C333.833 133.591 333.95 133.591 334.079 133.58C334.278 133.568 334.494 133.55 334.717 133.527C334.828 133.509 334.939 133.498 335.05 133.48H335.062C335.185 133.463 335.308 133.439 335.437 133.422C337.035 133.152 338.621 132.93 340.19 132.76C341.764 132.59 343.322 132.467 344.861 132.403C346.406 132.333 347.934 132.315 349.456 132.35C349.965 132.368 350.469 132.38 350.966 132.403C351.47 132.426 351.973 132.456 352.471 132.491C353.472 132.555 354.467 132.649 355.45 132.76C355.948 132.813 356.439 132.883 356.925 132.947H356.943C357.429 133.018 357.915 133.088 358.4 133.17C359.378 133.322 360.344 133.504 361.304 133.708C361.784 133.808 362.27 133.913 362.744 134.024C363.089 134.106 363.435 134.183 363.78 134.282C364.043 134.341 364.307 134.411 364.57 134.481C365.308 134.674 366.045 134.885 366.777 135.113C366.947 135.166 367.116 135.213 367.28 135.271C367.725 135.406 368.176 135.552 368.615 135.704C368.99 135.827 369.353 135.956 369.721 136.091C369.792 136.108 369.862 136.138 369.926 136.167C370.219 136.272 370.506 136.378 370.793 136.489C371.249 136.659 371.7 136.834 372.156 137.027C373.38 137.525 374.592 138.063 375.792 138.637C376.693 139.07 377.583 139.521 378.472 140.001C379.351 140.469 380.229 140.961 381.095 141.476C381.669 141.816 382.236 142.167 382.804 142.524C383.003 142.647 383.202 142.77 383.401 142.904C383.758 143.133 384.121 143.367 384.478 143.613C384.496 143.613 384.508 143.63 384.531 143.642C384.9 143.888 385.269 144.14 385.637 144.403C385.93 144.602 386.217 144.807 386.51 145.018C386.849 145.263 387.183 145.509 387.522 145.761C388.67 146.61 389.805 147.505 390.923 148.436C391.292 148.74 391.649 149.051 392.012 149.361C393.393 150.549 394.716 151.767 395.975 153.014C396.15 153.183 396.332 153.359 396.502 153.54C396.695 153.734 396.888 153.933 397.081 154.126C397.151 154.196 397.216 154.266 397.286 154.337C397.544 154.6 397.801 154.875 398.047 155.144C398.094 155.191 398.135 155.232 398.176 155.279C398.439 155.56 398.703 155.847 398.966 156.139C399.025 156.21 399.089 156.28 399.153 156.35C399.347 156.567 399.54 156.783 399.727 157C400.242 157.585 400.734 158.171 401.214 158.762C401.436 159.025 401.647 159.295 401.858 159.558C401.951 159.675 402.045 159.792 402.127 159.909C402.326 160.161 402.525 160.418 402.712 160.67C402.917 160.934 403.122 161.209 403.315 161.478C403.485 161.706 403.655 161.935 403.813 162.169C403.942 162.344 404.07 162.526 404.193 162.707C404.673 163.392 405.136 164.083 405.586 164.785C405.616 164.832 405.645 164.873 405.674 164.92C405.704 164.973 405.739 165.025 405.768 165.078C405.979 165.406 406.178 165.734 406.377 166.055C406.523 166.284 406.664 166.524 406.798 166.752C407.026 167.133 407.243 167.519 407.46 167.905C407.635 168.21 407.799 168.514 407.969 168.818C408.32 169.474 408.66 170.13 408.987 170.797C409.175 171.166 409.356 171.534 409.526 171.909C409.59 172.044 409.655 172.178 409.719 172.319C409.895 172.699 410.064 173.08 410.234 173.472C410.258 173.525 410.287 173.572 410.304 173.624C410.509 174.098 410.714 174.578 410.902 175.064C411.106 175.568 411.305 176.077 411.493 176.586C411.493 176.598 411.504 176.604 411.504 176.61C411.639 176.967 411.768 177.33 411.897 177.692C412.025 178.061 412.148 178.418 412.271 178.787C412.359 179.039 412.435 179.296 412.517 179.548C412.576 179.741 412.64 179.94 412.699 180.139C412.751 180.309 412.804 180.479 412.857 180.654C412.944 180.93 413.015 181.205 413.091 181.491C413.12 181.579 413.143 181.667 413.167 181.761C413.237 182.007 413.307 182.252 413.366 182.504C413.436 182.762 413.495 183.013 413.559 183.265C413.641 183.593 413.717 183.915 413.793 184.243C413.893 184.682 413.992 185.115 414.086 185.56C414.958 189.675 415.438 193.971 415.526 198.438C415.543 199.07 415.549 199.708 415.543 200.346V201.376C415.543 201.528 415.543 201.681 415.543 201.821C415.555 202.916 415.608 203.688 415.801 204.268C416.105 205.199 416.755 205.603 418.142 205.989C418.792 206.17 419.606 206.346 420.624 206.574C422.135 206.914 423.604 207.288 425.044 207.692C433.842 210.174 441.434 213.921 447.756 218.966C447.85 219.042 447.949 219.124 448.037 219.195C449.629 220.482 451.145 221.858 452.568 223.316C457.028 227.864 460.236 232.828 462.554 237.435C462.554 237.446 462.566 237.452 462.571 237.464C465.732 243.768 467.219 249.405 467.951 252.408C468.32 253.918 468.753 255.739 469.098 257.922C469.35 259.538 469.549 261.364 469.625 263.407C469.748 266.685 469.537 269.776 469.098 272.65L469.122 272.632Z" fill="#286DC0"/>
<path d="M415.824 204.244C415.772 202.289 415.678 200.352 415.543 198.414C415.251 194.065 414.771 189.768 414.103 185.536C411.136 171.406 403.649 159.341 392.024 149.332C375.739 135.306 356.779 129.775 335.448 133.41C333.552 133.732 332.287 133.621 331.374 132.842C337.515 149.139 340.875 166.799 340.875 185.244C340.875 247.924 302.077 301.537 247.188 323.395C285.4 323.418 323.612 323.424 361.825 323.342C394.845 296.082 415.895 254.826 415.895 208.658C415.895 207.183 415.877 205.714 415.824 204.244Z" fill="#3690FE"/>
<path d="M340.88 185.244C340.88 247.918 302.089 301.532 247.205 323.389C247.205 323.389 247.205 323.389 247.193 323.389C240.702 323.389 234.216 323.377 227.718 323.371C227.73 323.36 227.736 323.354 227.742 323.354C256.454 296.258 274.366 257.852 274.366 215.249C274.366 156.35 240.105 105.441 190.413 81.3887C189.471 80.9322 188.528 80.4873 187.58 80.0541C190.963 77.6658 194.569 75.4239 198.403 73.3225C212.206 65.7537 226.237 62.066 240.321 61.9781C241.111 61.9781 241.902 62.0016 242.686 62.0308C252.772 62.4347 263.15 64.6006 273.786 68.5693C284.235 72.4678 293.308 77.7127 301.052 84.2395C301.07 84.257 301.082 84.2629 301.099 84.2804C301.515 84.6492 301.854 84.9595 302.094 85.1819C302.288 85.3751 302.621 85.7263 303.037 86.1653L303.054 86.1829C303.054 86.1829 303.066 86.1946 303.072 86.2004C303.072 86.2121 303.09 86.218 303.095 86.2238C307.041 90.2863 309.927 94.2784 312.918 98.4579C313.257 98.932 313.509 99.295 313.661 99.5057C314.744 101.039 315.809 102.596 316.834 104.177C317.091 104.569 317.349 104.967 317.595 105.365C317.806 105.693 318.01 106.021 318.215 106.349C319.017 107.613 319.796 108.895 320.545 110.194C320.732 110.505 320.914 110.815 321.095 111.131C321.452 111.751 321.798 112.366 322.143 112.992C322.365 113.385 322.582 113.771 322.793 114.163C323.197 114.907 323.595 115.65 323.981 116.393C324.204 116.815 324.42 117.23 324.637 117.652C325.503 119.338 326.328 121.041 327.13 122.768C327.329 123.195 327.528 123.628 327.722 124.062C327.956 124.577 328.19 125.104 328.418 125.63C328.904 127.065 329.366 128.522 329.805 129.997C330.209 131.367 330.689 132.286 331.357 132.842C337.497 149.139 340.857 166.799 340.857 185.244H340.88Z" fill="#86BDFE"/>
<path d="M274.372 215.255C274.372 257.852 256.454 296.263 227.748 323.36C227.736 323.36 227.73 323.372 227.724 323.377C214.296 323.366 200.874 323.36 187.446 323.348C187.463 323.301 187.486 323.254 187.498 323.208C187.721 322.663 187.937 322.125 188.154 321.58C188.581 320.492 188.997 319.397 189.406 318.296C189.646 317.647 189.881 317.003 190.103 316.347C190.46 315.334 190.8 314.322 191.139 313.303C191.865 311.067 192.55 308.802 193.182 306.519C193.486 305.407 193.779 304.289 194.06 303.165C194.06 303.136 194.078 303.106 194.078 303.077C194.364 301.924 194.634 300.765 194.897 299.606C194.95 299.395 194.991 299.184 195.032 298.974C195.231 298.066 195.424 297.159 195.605 296.252C195.629 296.129 195.658 296.006 195.676 295.877C195.781 295.362 195.875 294.853 195.974 294.332C196.203 293.091 196.419 291.838 196.618 290.585C196.753 289.742 196.887 288.9 196.999 288.051C197.04 287.782 197.075 287.524 197.11 287.255C197.18 286.757 197.244 286.265 197.303 285.774C197.49 284.287 197.654 282.788 197.795 281.284C197.894 280.248 197.982 279.212 198.058 278.17C198.076 277.942 198.093 277.702 198.105 277.462C198.163 276.642 198.216 275.823 198.257 274.997C198.398 272.369 198.468 269.723 198.468 267.066C198.468 260.088 197.988 253.216 197.051 246.49C196.887 245.267 196.7 244.043 196.501 242.826C196.144 240.654 195.74 238.5 195.289 236.363C194.921 234.613 194.528 232.88 194.101 231.159C193.943 230.521 193.779 229.883 193.615 229.245C193.118 227.343 192.579 225.446 192.005 223.573C192.005 223.556 191.994 223.532 191.988 223.52C191.607 222.291 191.215 221.062 190.805 219.844C189.769 216.754 188.64 213.704 187.41 210.707C187.165 210.11 186.919 209.513 186.661 208.916C185.051 205.128 183.284 201.417 181.375 197.8C181.17 197.407 180.966 197.015 180.755 196.629C178.94 193.263 177.003 189.973 174.942 186.771C174.708 186.403 174.468 186.04 174.228 185.677C173.391 184.401 172.542 183.136 171.664 181.89C170.587 180.35 169.481 178.834 168.345 177.341C167.965 176.832 167.572 176.329 167.18 175.825C166.396 174.818 165.6 173.817 164.786 172.834C164.382 172.342 163.978 171.851 163.563 171.359C162.333 169.895 161.069 168.461 159.781 167.045C159.354 166.571 158.921 166.102 158.488 165.64C157.188 164.241 155.854 162.871 154.49 161.525C154.039 161.08 153.582 160.629 153.12 160.19C152.663 159.745 152.201 159.306 151.738 158.867C151.276 158.422 150.808 157.995 150.334 157.568C149.865 157.135 149.391 156.707 148.917 156.28C149.292 155.513 149.438 154.489 149.479 153.172C150.468 121.673 163.206 97.217 187.574 80.0659C188.523 80.5049 189.471 80.9439 190.407 81.4005C240.099 105.453 274.36 156.356 274.36 215.261L274.372 215.255Z" fill="#AED3FF"/>
<path d="M198.468 267.065C198.468 269.723 198.397 272.369 198.257 274.997C198.216 275.823 198.169 276.642 198.105 277.462C198.093 277.702 198.076 277.942 198.058 278.17C197.976 279.218 197.894 280.248 197.795 281.284C197.654 282.788 197.49 284.287 197.303 285.774C197.244 286.271 197.18 286.763 197.11 287.255C197.075 287.524 197.039 287.781 196.998 288.051C196.881 288.894 196.753 289.737 196.618 290.585C196.425 291.844 196.208 293.091 195.974 294.332C195.88 294.847 195.781 295.362 195.676 295.877C195.658 296 195.629 296.129 195.605 296.252C195.424 297.159 195.231 298.072 195.032 298.974C194.991 299.184 194.944 299.395 194.897 299.606C194.639 300.771 194.364 301.93 194.077 303.077C194.077 303.106 194.06 303.135 194.06 303.165C193.779 304.283 193.48 305.407 193.182 306.519C192.556 308.808 191.877 311.067 191.139 313.303C190.799 314.322 190.46 315.34 190.103 316.347C189.875 317.003 189.646 317.647 189.406 318.296C188.997 319.397 188.581 320.491 188.154 321.58C187.937 322.125 187.72 322.663 187.498 323.208C187.48 323.254 187.463 323.301 187.445 323.348C182.528 323.348 177.617 323.348 172.7 323.348C164.727 323.348 156.755 323.348 148.782 323.348C143.684 323.348 138.644 322.868 133.721 321.926C131.69 321.545 129.688 321.083 127.703 320.55C127.674 320.538 127.639 320.532 127.61 320.527C117.079 317.688 107.239 312.782 98.6694 306.209C98.6694 306.209 98.6577 306.197 98.6518 306.197C88.209 298.183 79.6568 287.688 74.0783 275.43C72.9778 273.013 71.9944 270.531 71.134 267.985C61.2589 238.763 66.3281 211.632 85.6802 187.884C96.6557 174.409 110.412 165.634 126.322 161.326C132.17 159.745 138.31 158.756 144.714 158.37C144.837 158.37 144.96 158.352 145.077 158.346C145.094 158.346 145.106 158.346 145.124 158.346C145.2 158.346 145.27 158.329 145.34 158.329C145.358 158.329 145.364 158.329 145.381 158.329C146.013 158.253 146.546 158.136 146.997 157.96L147.19 157.884C147.19 157.884 147.213 157.872 147.225 157.866C148.015 157.509 148.513 156.959 148.8 156.18C148.841 156.216 148.888 156.257 148.923 156.297C149.403 156.725 149.871 157.152 150.339 157.585C150.813 158.013 151.282 158.446 151.744 158.885C152.207 159.324 152.669 159.757 153.126 160.208C153.582 160.653 154.039 161.097 154.495 161.542C155.859 162.889 157.188 164.258 158.493 165.657C158.932 166.126 159.366 166.594 159.787 167.062C161.081 168.479 162.339 169.919 163.568 171.376C163.978 171.862 164.388 172.354 164.792 172.852C165.605 173.835 166.402 174.836 167.186 175.843C167.578 176.346 167.97 176.855 168.351 177.359C169.486 178.851 170.593 180.368 171.67 181.907C172.542 183.154 173.397 184.418 174.234 185.694C174.474 186.057 174.714 186.42 174.948 186.789C177.008 189.991 178.946 193.275 180.761 196.646C180.971 197.033 181.176 197.425 181.381 197.817C183.289 201.435 185.057 205.146 186.667 208.933C186.924 209.524 187.17 210.122 187.416 210.724C188.645 213.721 189.775 216.771 190.811 219.862C191.221 221.085 191.613 222.303 191.994 223.538C191.994 223.556 192.005 223.573 192.011 223.591C192.585 225.464 193.123 227.36 193.621 229.263C193.785 229.901 193.955 230.539 194.107 231.177C194.54 232.898 194.938 234.636 195.295 236.381C195.746 238.517 196.15 240.672 196.507 242.843C196.706 244.061 196.887 245.278 197.057 246.508C197.994 253.233 198.474 260.1 198.474 267.083L198.468 267.065Z" fill="#CAE5FF"/>
<path d="M1596.72 205.416V229.539H1526.99V205.416H1596.72ZM1542.82 177.675H1574.94V285.624C1574.94 288.589 1575.39 290.901 1576.29 292.559C1577.2 294.167 1578.45 295.298 1580.06 295.951C1581.72 296.605 1583.63 296.931 1585.79 296.931C1587.3 296.931 1588.81 296.806 1590.31 296.554C1591.82 296.253 1592.98 296.027 1593.78 295.876L1598.83 319.772C1597.22 320.275 1594.96 320.853 1592.05 321.506C1589.13 322.21 1585.59 322.637 1581.42 322.788C1573.68 323.089 1566.9 322.059 1561.07 319.697C1555.29 317.335 1550.79 313.666 1547.57 308.691C1544.36 303.716 1542.77 297.434 1542.82 289.845V177.675Z" fill="white"/>
<path d="M1512.27 238.434L1482.87 240.243C1482.37 237.73 1481.29 235.469 1479.63 233.459C1477.97 231.398 1475.79 229.765 1473.07 228.559C1470.41 227.302 1467.22 226.674 1463.5 226.674C1458.53 226.674 1454.33 227.73 1450.91 229.84C1447.49 231.901 1445.79 234.665 1445.79 238.132C1445.79 240.896 1446.89 243.233 1449.1 245.143C1451.31 247.053 1455.11 248.586 1460.49 249.741L1481.44 253.963C1492.7 256.275 1501.09 259.994 1506.62 265.12C1512.15 270.246 1514.91 276.98 1514.91 285.322C1514.91 292.911 1512.68 299.57 1508.2 305.299C1503.78 311.028 1497.7 315.501 1489.96 318.717C1482.27 321.883 1473.4 323.466 1463.35 323.466C1448.02 323.466 1435.81 320.275 1426.71 313.893C1417.67 307.46 1412.37 298.715 1410.81 287.659L1442.39 286.001C1443.35 290.675 1445.66 294.243 1449.33 296.705C1453 299.117 1457.7 300.324 1463.43 300.324C1469.05 300.324 1473.58 299.243 1476.99 297.082C1480.46 294.871 1482.22 292.031 1482.27 288.564C1482.22 285.649 1480.99 283.262 1478.58 281.402C1476.16 279.493 1472.45 278.035 1467.42 277.03L1447.37 273.035C1436.06 270.773 1427.64 266.853 1422.12 261.275C1416.64 255.697 1413.9 248.586 1413.9 239.942C1413.9 232.504 1415.91 226.096 1419.93 220.719C1424 215.342 1429.7 211.195 1437.04 208.281C1444.43 205.366 1453.07 203.908 1462.97 203.908C1477.6 203.908 1489.11 206.999 1497.5 213.181C1505.94 219.362 1510.87 227.78 1512.27 238.434Z" fill="white"/>
<path d="M1325.81 323.391C1318.43 323.391 1311.84 322.109 1306.06 319.546C1300.28 316.933 1295.71 313.088 1292.34 308.013C1289.03 302.887 1287.37 296.504 1287.37 288.865C1287.37 282.433 1288.55 277.03 1290.91 272.658C1293.27 268.286 1296.49 264.768 1300.56 262.104C1304.63 259.441 1309.25 257.431 1314.43 256.074C1319.66 254.717 1325.13 253.762 1330.86 253.209C1337.6 252.505 1343.03 251.852 1347.15 251.249C1351.27 250.596 1354.26 249.641 1356.12 248.385C1357.98 247.128 1358.91 245.269 1358.91 242.806V242.354C1358.91 237.58 1357.4 233.886 1354.38 231.273C1351.42 228.659 1347.2 227.353 1341.72 227.353C1335.94 227.353 1331.34 228.634 1327.92 231.197C1324.51 233.71 1322.24 236.876 1321.14 240.695L1291.44 238.283C1292.95 231.247 1295.91 225.166 1300.33 220.04C1304.76 214.864 1310.46 210.894 1317.45 208.13C1324.48 205.316 1332.62 203.908 1341.87 203.908C1348.3 203.908 1354.46 204.662 1360.34 206.17C1366.27 207.678 1371.52 210.014 1376.09 213.181C1380.72 216.347 1384.36 220.417 1387.02 225.393C1389.69 230.318 1391.02 236.223 1391.02 243.108V321.205H1360.56V305.148H1359.66C1357.8 308.766 1355.31 311.958 1352.2 314.722C1349.08 317.436 1345.34 319.571 1340.96 321.129C1336.59 322.637 1331.54 323.391 1325.81 323.391ZM1335.01 301.228C1339.73 301.228 1343.9 300.298 1347.52 298.439C1351.14 296.529 1353.98 293.966 1356.04 290.75C1358.1 287.534 1359.13 283.89 1359.13 279.819V267.532C1358.13 268.185 1356.74 268.788 1354.99 269.341C1353.28 269.844 1351.34 270.321 1349.18 270.773C1347.02 271.175 1344.86 271.552 1342.7 271.904C1340.54 272.206 1338.58 272.482 1336.82 272.733C1333.05 273.286 1329.76 274.166 1326.94 275.372C1324.13 276.578 1321.94 278.211 1320.39 280.272C1318.83 282.282 1318.05 284.795 1318.05 287.81C1318.05 292.182 1319.63 295.524 1322.8 297.836C1326.01 300.097 1330.08 301.228 1335.01 301.228Z" fill="white"/>
<path d="M1269.99 220.87H1236.97C1236.37 216.598 1235.14 212.804 1233.28 209.487C1231.42 206.12 1229.03 203.255 1226.12 200.893C1223.2 198.531 1219.84 196.722 1216.02 195.465C1212.25 194.209 1208.15 193.581 1203.73 193.581C1195.74 193.581 1188.78 195.566 1182.85 199.536C1176.92 203.456 1172.32 209.185 1169.05 216.724C1165.79 224.212 1164.15 233.308 1164.15 244.012C1164.15 255.018 1165.79 264.265 1169.05 271.753C1172.37 279.241 1176.99 284.895 1182.92 288.715C1188.85 292.534 1195.71 294.444 1203.5 294.444C1207.88 294.444 1211.92 293.866 1215.64 292.71C1219.41 291.554 1222.75 289.87 1225.67 287.659C1228.58 285.398 1230.99 282.659 1232.9 279.442C1234.86 276.226 1236.22 272.557 1236.97 268.436L1269.99 268.587C1269.14 275.673 1267 282.508 1263.58 289.091C1260.22 295.625 1255.67 301.479 1249.94 306.656C1244.26 311.782 1237.48 315.853 1229.59 318.868C1221.75 321.833 1212.88 323.315 1202.98 323.315C1189.21 323.315 1176.89 320.2 1166.04 313.968C1155.23 307.736 1146.69 298.715 1140.41 286.905C1134.18 275.095 1131.06 260.798 1131.06 244.012C1131.06 227.177 1134.23 212.854 1140.56 201.044C1146.89 189.234 1155.48 180.238 1166.34 174.057C1177.19 167.825 1189.41 164.709 1202.98 164.709C1211.92 164.709 1220.21 165.966 1227.85 168.478C1235.54 170.991 1242.35 174.66 1248.28 179.484C1254.21 184.259 1259.04 190.113 1262.75 197.049C1266.52 203.984 1268.94 211.924 1269.99 220.87Z" fill="white"/>
<path d="M1043.05 323.391C1035.66 323.391 1029.08 322.109 1023.3 319.546C1017.52 316.933 1012.95 313.088 1009.58 308.013C1006.26 302.887 1004.6 296.504 1004.6 288.865C1004.6 282.433 1005.79 277.03 1008.15 272.658C1010.51 268.286 1013.73 264.768 1017.8 262.104C1021.87 259.441 1026.49 257.431 1031.67 256.074C1036.89 254.717 1042.37 253.762 1048.1 253.209C1054.83 252.505 1060.26 251.852 1064.38 251.249C1068.5 250.596 1071.49 249.641 1073.35 248.385C1075.21 247.128 1076.14 245.269 1076.14 242.806V242.354C1076.14 237.58 1074.64 233.886 1071.62 231.273C1068.66 228.659 1064.43 227.353 1058.96 227.353C1053.18 227.353 1048.58 228.634 1045.16 231.197C1041.74 233.71 1039.48 236.876 1038.38 240.695L1008.68 238.283C1010.18 231.247 1013.15 225.166 1017.57 220.04C1021.99 214.864 1027.7 210.894 1034.68 208.13C1041.72 205.316 1049.86 203.908 1059.11 203.908C1065.54 203.908 1071.7 204.662 1077.58 206.17C1083.51 207.678 1088.76 210.014 1093.33 213.181C1097.95 216.347 1101.6 220.417 1104.26 225.393C1106.92 230.318 1108.26 236.223 1108.26 243.108V321.205H1077.8V305.148H1076.9C1075.04 308.766 1072.55 311.958 1069.43 314.722C1066.32 317.436 1062.57 319.571 1058.2 321.129C1053.83 322.637 1048.78 323.391 1043.05 323.391ZM1052.25 301.228C1056.97 301.228 1061.14 300.298 1064.76 298.439C1068.38 296.529 1071.22 293.966 1073.28 290.75C1075.34 287.534 1076.37 283.89 1076.37 279.819V267.532C1075.36 268.185 1073.98 268.788 1072.22 269.341C1070.51 269.844 1068.58 270.321 1066.42 270.773C1064.26 271.175 1062.1 271.552 1059.94 271.904C1057.77 272.206 1055.81 272.482 1054.06 272.733C1050.29 273.286 1046.99 274.166 1044.18 275.372C1041.37 276.578 1039.18 278.211 1037.62 280.272C1036.06 282.282 1035.29 284.795 1035.29 287.81C1035.29 292.182 1036.87 295.524 1040.03 297.836C1043.25 300.097 1047.32 301.228 1052.25 301.228Z" fill="white"/>
<path d="M816.411 321.205V205.416H847.017V225.845H848.374C850.786 219.06 854.806 213.708 860.435 209.788C866.064 205.868 872.798 203.908 880.638 203.908C888.578 203.908 895.337 205.894 900.916 209.864C906.494 213.784 910.213 219.111 912.072 225.845H913.279C915.641 219.211 919.912 213.909 926.094 209.939C932.325 205.919 939.688 203.908 948.181 203.908C958.986 203.908 967.756 207.351 974.49 214.236C981.274 221.071 984.667 230.77 984.667 243.334V321.205H952.629V249.666C952.629 243.233 950.92 238.409 947.503 235.192C944.085 231.976 939.813 230.368 934.687 230.368C928.858 230.368 924.31 232.227 921.043 235.946C917.776 239.615 916.143 244.465 916.143 250.495V321.205H885.01V248.988C885.01 243.309 883.377 238.786 880.11 235.419C876.894 232.051 872.647 230.368 867.37 230.368C863.802 230.368 860.586 231.273 857.721 233.082C854.907 234.841 852.67 237.328 851.012 240.545C849.354 243.711 848.524 247.43 848.524 251.701V321.205H816.411Z" fill="white"/>
<path d="M758.572 321.205V205.416H790.686V321.205H758.572ZM774.704 190.49C769.93 190.49 765.834 188.907 762.417 185.741C759.05 182.525 757.366 178.68 757.366 174.207C757.366 169.785 759.05 165.991 762.417 162.825C765.834 159.608 769.93 158 774.704 158C779.479 158 783.549 159.608 786.916 162.825C790.334 165.991 792.042 169.785 792.042 174.207C792.042 178.68 790.334 182.525 786.916 185.741C783.549 188.907 779.479 190.49 774.704 190.49Z" fill="white"/>
<path d="M732.849 166.82V321.205H700.735V166.82H732.849Z" fill="white"/>
<path d="M677.931 220.87H644.913C644.31 216.598 643.079 212.804 641.22 209.487C639.36 206.12 636.973 203.255 634.058 200.893C631.143 198.531 627.776 196.722 623.957 195.465C620.188 194.209 616.092 193.581 611.669 193.581C603.679 193.581 596.718 195.566 590.788 199.536C584.858 203.456 580.26 209.185 576.993 216.724C573.727 224.212 572.093 233.308 572.093 244.012C572.093 255.018 573.727 264.265 576.993 271.753C580.31 279.241 584.934 284.895 590.864 288.715C596.794 292.534 603.654 294.444 611.443 294.444C615.816 294.444 619.861 293.866 623.58 292.71C627.349 291.554 630.691 289.87 633.606 287.659C636.521 285.398 638.933 282.659 640.843 279.442C642.803 276.226 644.16 272.557 644.913 268.436L677.931 268.587C677.077 275.673 674.941 282.508 671.524 289.091C668.157 295.625 663.608 301.479 657.879 306.656C652.2 311.782 645.416 315.853 637.526 318.868C629.686 321.833 620.816 323.315 610.916 323.315C597.146 323.315 584.833 320.2 573.978 313.968C563.173 307.736 554.629 298.715 548.348 286.905C542.116 275.095 539 260.798 539 244.012C539 227.177 542.166 212.854 548.498 201.044C554.83 189.234 563.424 180.238 574.279 174.057C585.135 167.825 597.347 164.709 610.916 164.709C619.861 164.709 628.153 165.966 635.792 168.478C643.481 170.991 650.291 174.66 656.221 179.484C662.151 184.259 666.976 190.113 670.695 197.049C674.464 203.984 676.876 211.924 677.931 220.87Z" fill="white"/>
</svg>
