<svg width="168" height="135" viewBox="0 0 168 135" fill="none" xmlns="http://www.w3.org/2000/svg">
<path d="M94.7271 97L95.375 94.6L104.327 88.168C105.191 87.544 105.839 86.96 106.271 86.416C106.703 85.872 106.919 85.296 106.919 84.688C106.919 84.048 106.695 83.544 106.247 83.176C105.799 82.808 105.175 82.624 104.375 82.624C103.559 82.624 102.807 82.832 102.119 83.248C101.431 83.648 100.767 84.168 100.127 84.808L98.279 82.912C99.079 82.048 99.991 81.344 101.015 80.8C102.039 80.24 103.199 79.96 104.495 79.96C105.311 79.96 106.055 80.072 106.727 80.296C107.399 80.504 107.975 80.808 108.455 81.208C108.935 81.592 109.303 82.056 109.559 82.6C109.831 83.144 109.967 83.744 109.967 84.4C109.967 84.912 109.895 85.392 109.751 85.84C109.607 86.288 109.383 86.728 109.079 87.16C108.775 87.592 108.383 88.032 107.903 88.48C107.423 88.928 106.839 89.4 106.151 89.896L99.911 94.408H107.759L107.063 97H94.7271Z" fill="#0077B6"/>
<path d="M87.9277 97.0001L91.6237 83.2481L88.4317 84.0641L88.3837 81.5201L93.3517 80.0801H95.3917L90.8557 97.0001H87.9277Z" fill="#0077B6"/>
<path d="M76.3417 97.2881C75.3817 97.2881 74.5097 97.1281 73.7257 96.8081C72.9577 96.4721 72.3017 96.0081 71.7577 95.4161C71.2137 94.8241 70.7897 94.1121 70.4857 93.2801C70.1977 92.4481 70.0537 91.5281 70.0537 90.5201C70.0537 89.2561 70.2617 87.9921 70.6777 86.7281C71.0937 85.4641 71.6857 84.3281 72.4537 83.3201C73.2217 82.3121 74.1497 81.4961 75.2377 80.8721C76.3417 80.2321 77.5817 79.9121 78.9577 79.9121C79.9177 79.9121 80.7817 80.0801 81.5497 80.4161C82.3337 80.7361 82.9897 81.1921 83.5177 81.7841C84.0617 82.3761 84.4777 83.0881 84.7657 83.9201C85.0697 84.7521 85.2217 85.6721 85.2217 86.6801C85.2217 87.9441 85.0137 89.2081 84.5977 90.4721C84.1817 91.7361 83.5897 92.8721 82.8217 93.8801C82.0537 94.8881 81.1177 95.7121 80.0137 96.3521C78.9257 96.9761 77.7017 97.2881 76.3417 97.2881ZM76.5577 94.6241C77.3737 94.6241 78.1257 94.3841 78.8137 93.9041C79.5017 93.4081 80.0937 92.7841 80.5897 92.0321C81.0857 91.2641 81.4697 90.4081 81.7417 89.4641C82.0297 88.5201 82.1737 87.5921 82.1737 86.6801C82.1737 85.4161 81.8697 84.4161 81.2617 83.6801C80.6697 82.9441 79.8217 82.5761 78.7177 82.5761C77.9017 82.5761 77.1497 82.8241 76.4617 83.3201C75.7737 83.8001 75.1817 84.4241 74.6857 85.1921C74.1897 85.9441 73.7977 86.7921 73.5097 87.7361C73.2377 88.6801 73.1017 89.6081 73.1017 90.5201C73.1017 91.7841 73.3977 92.7841 73.9897 93.5201C74.5977 94.2561 75.4537 94.6241 76.5577 94.6241Z" fill="#0077B6"/>
<path d="M61.6232 100.48L61.4072 99.2559C62.2712 99.1279 62.9112 98.8719 63.3272 98.4879C63.7592 98.1039 64.0392 97.6079 64.1672 96.9999H62.9192L63.8072 93.7119H66.9992L66.2552 96.4959C66.0792 97.1839 65.8552 97.7679 65.5832 98.2479C65.3112 98.7279 64.9832 99.1199 64.5992 99.4239C64.2152 99.7439 63.7752 99.9839 63.2792 100.144C62.7992 100.32 62.2472 100.432 61.6232 100.48Z" fill="#0077B6"/>
<path d="M55.2559 97.0001L58.9519 83.2481L55.7599 84.0641L55.7119 81.5201L60.6799 80.0801H62.7199L58.1839 97.0001H55.2559Z" fill="#0077B6"/>
<path d="M89.475 113.132C89.203 113.132 88.947 113.088 88.707 113C88.475 112.92 88.271 112.808 88.095 112.664C87.927 112.512 87.791 112.328 87.687 112.112C87.591 111.896 87.543 111.656 87.543 111.392C87.543 111.024 87.611 110.7 87.747 110.42C87.891 110.132 88.087 109.892 88.335 109.7C88.591 109.508 88.891 109.364 89.235 109.268C89.579 109.164 89.955 109.112 90.363 109.112C90.715 109.112 91.047 109.14 91.359 109.196C91.679 109.252 91.979 109.328 92.259 109.424L92.295 109.292C92.319 109.196 92.335 109.112 92.343 109.04C92.359 108.968 92.367 108.884 92.367 108.788C92.367 108.508 92.259 108.284 92.043 108.116C91.827 107.94 91.475 107.852 90.987 107.852C90.667 107.852 90.359 107.884 90.063 107.948C89.775 108.012 89.503 108.096 89.247 108.2L89.007 107C89.335 106.864 89.687 106.76 90.063 106.688C90.439 106.608 90.843 106.568 91.275 106.568C92.115 106.568 92.747 106.74 93.171 107.084C93.603 107.428 93.819 107.912 93.819 108.536C93.819 108.688 93.807 108.836 93.783 108.98C93.759 109.124 93.727 109.276 93.687 109.436L92.739 113H91.311L91.527 112.172C91.247 112.468 90.943 112.704 90.615 112.88C90.287 113.048 89.907 113.132 89.475 113.132ZM90.039 112.064C90.263 112.064 90.479 112.024 90.687 111.944C90.895 111.864 91.083 111.756 91.251 111.62C91.427 111.476 91.575 111.316 91.695 111.14C91.823 110.956 91.911 110.768 91.959 110.576L92.031 110.3C91.831 110.236 91.611 110.18 91.371 110.132C91.131 110.084 90.871 110.06 90.591 110.06C90.103 110.06 89.719 110.168 89.439 110.384C89.167 110.592 89.031 110.864 89.031 111.2C89.031 111.48 89.119 111.696 89.295 111.848C89.479 111.992 89.727 112.064 90.039 112.064Z" fill="#0077B6"/>
<path d="M79.646 113.001L81.902 104.601H84.554C85.13 104.601 85.626 104.665 86.042 104.793C86.458 104.921 86.81 105.133 87.098 105.429C87.514 105.845 87.722 106.397 87.722 107.085C87.722 107.589 87.618 108.041 87.41 108.441C87.21 108.833 86.926 109.165 86.558 109.437C86.198 109.709 85.766 109.917 85.262 110.061C84.758 110.205 84.21 110.277 83.618 110.277H81.866L81.134 113.001H79.646ZM82.214 108.969H83.69C84.466 108.969 85.074 108.817 85.514 108.513C85.962 108.201 86.186 107.765 86.186 107.205C86.186 106.869 86.078 106.593 85.862 106.377C85.574 106.089 85.122 105.945 84.506 105.945H83.018L82.214 108.969Z" fill="#0077B6"/>
<path d="M72.0601 113L74.4001 104.24H75.8521L74.9881 107.48C75.2441 107.224 75.5241 107.004 75.8281 106.82C76.1401 106.628 76.5001 106.532 76.9081 106.532C77.5001 106.532 77.9681 106.704 78.3121 107.048C78.6641 107.384 78.8401 107.844 78.8401 108.428C78.8401 108.596 78.8201 108.78 78.7801 108.98C78.7401 109.172 78.6961 109.36 78.6481 109.544L77.7361 113H76.2841L77.2201 109.484C77.2521 109.38 77.2761 109.272 77.2921 109.16C77.3081 109.04 77.3161 108.936 77.3161 108.848C77.3161 108.528 77.2201 108.284 77.0281 108.116C76.8361 107.94 76.5641 107.852 76.2121 107.852C75.8041 107.852 75.4441 108 75.1321 108.296C74.8201 108.584 74.6001 108.964 74.4721 109.436L73.5121 113H72.0601Z" fill="#0077B6"/>
<path d="M91 63.5L84 71L91 63.5ZM84 71L77 63.5L84 71ZM84 71V53V71Z" fill="#0077B6"/>
<path fill-rule="evenodd" clip-rule="evenodd" d="M84 51C85.1046 51 86 51.8954 86 53V65.926L89.5379 62.1354C90.2916 61.3279 91.5571 61.2842 92.3646 62.0379C93.1721 62.7916 93.2158 64.0571 92.4621 64.8646L85.4621 72.3646C85.0839 72.7699 84.5544 73 84 73C83.4456 73 82.9161 72.7699 82.5379 72.3646L75.5379 64.8646C74.7842 64.0571 74.8279 62.7916 75.6354 62.0379C76.4429 61.2842 77.7085 61.3279 78.4621 62.1354L82 65.926V53C82 51.8954 82.8954 51 84 51Z" fill="#0077B6"/>
<path d="M46.3215 126.771L48.0015 131.775L49.6335 126.795H50.5935L48.4095 133.047H47.6055L45.9375 128.151L44.2575 133.047H43.4415L41.2695 126.795H42.2535L43.8855 131.775L45.5535 126.771H46.3215Z" fill="#0077B6"/>
<path d="M40.4285 129.892C40.4285 130.332 40.3444 130.752 40.1764 131.152C40.0164 131.544 39.7924 131.888 39.5044 132.184C39.2164 132.48 38.8724 132.716 38.4724 132.892C38.0724 133.06 37.6404 133.144 37.1764 133.144C36.7124 133.144 36.2844 133.06 35.8924 132.892C35.5004 132.716 35.1604 132.484 34.8724 132.196C34.5844 131.9 34.3604 131.556 34.2004 131.164C34.0404 130.772 33.9604 130.356 33.9604 129.916C33.9604 129.476 34.0404 129.06 34.2004 128.668C34.3604 128.268 34.5844 127.92 34.8724 127.624C35.1604 127.328 35.5004 127.096 35.8924 126.928C36.2924 126.752 36.7284 126.664 37.2004 126.664C37.6644 126.664 38.0924 126.752 38.4844 126.928C38.8844 127.096 39.2284 127.328 39.5164 127.624C39.8044 127.912 40.0284 128.252 40.1884 128.644C40.3484 129.036 40.4285 129.452 40.4285 129.892ZM39.4804 129.916C39.4804 129.58 39.4204 129.264 39.3004 128.968C39.1884 128.672 39.0284 128.416 38.8204 128.2C38.6124 127.976 38.3684 127.8 38.0884 127.672C37.8084 127.544 37.5044 127.48 37.1764 127.48C36.8404 127.48 36.5324 127.544 36.2524 127.672C35.9724 127.792 35.7324 127.964 35.5324 128.188C35.3404 128.404 35.1884 128.66 35.0764 128.956C34.9644 129.244 34.9084 129.556 34.9084 129.892C34.9084 130.228 34.9644 130.544 35.0764 130.84C35.1964 131.136 35.3564 131.392 35.5564 131.608C35.7644 131.824 36.0084 131.996 36.2884 132.124C36.5684 132.252 36.8724 132.316 37.2004 132.316C37.5364 132.316 37.8444 132.256 38.1244 132.136C38.4044 132.008 38.6444 131.836 38.8444 131.62C39.0444 131.404 39.2004 131.152 39.3124 130.864C39.4244 130.568 39.4804 130.252 39.4804 129.916Z" fill="#0077B6"/>
<path d="M27.188 133V124.6H28.136V132.124H32.864V133H27.188Z" fill="#0077B6"/>
<path d="M135.195 129.448V133H134.271V124.24H135.195V127.876C135.403 127.54 135.675 127.256 136.011 127.024C136.347 126.784 136.783 126.664 137.319 126.664C137.695 126.664 138.027 126.724 138.315 126.844C138.611 126.964 138.859 127.136 139.059 127.36C139.267 127.576 139.423 127.836 139.527 128.14C139.639 128.444 139.695 128.78 139.695 129.148V133H138.771V129.376C138.771 128.8 138.623 128.344 138.327 128.008C138.031 127.672 137.607 127.504 137.055 127.504C136.791 127.504 136.543 127.552 136.311 127.648C136.087 127.736 135.891 127.868 135.723 128.044C135.555 128.212 135.423 128.416 135.327 128.656C135.239 128.896 135.195 129.16 135.195 129.448Z" fill="#0077B6"/>
<path d="M132.205 131.92C132.205 132.424 132.129 132.864 131.977 133.24C131.833 133.616 131.621 133.928 131.341 134.176C131.069 134.432 130.737 134.624 130.345 134.752C129.961 134.88 129.529 134.944 129.049 134.944C128.529 134.944 128.033 134.872 127.561 134.728C127.089 134.584 126.645 134.368 126.229 134.08L126.649 133.36C127.009 133.616 127.385 133.812 127.777 133.948C128.169 134.084 128.589 134.152 129.037 134.152C129.725 134.152 130.273 133.964 130.681 133.588C131.089 133.22 131.293 132.672 131.293 131.944V131.212C131.021 131.572 130.689 131.88 130.297 132.136C129.905 132.392 129.425 132.52 128.857 132.52C128.481 132.52 128.117 132.456 127.765 132.328C127.421 132.192 127.113 132 126.841 131.752C126.569 131.496 126.349 131.188 126.181 130.828C126.021 130.468 125.941 130.06 125.941 129.604C125.941 129.148 126.021 128.74 126.181 128.38C126.349 128.012 126.569 127.704 126.841 127.456C127.113 127.2 127.425 127.004 127.777 126.868C128.129 126.732 128.489 126.664 128.857 126.664C129.145 126.664 129.409 126.7 129.649 126.772C129.897 126.836 130.117 126.924 130.309 127.036C130.509 127.148 130.689 127.28 130.849 127.432C131.009 127.584 131.153 127.744 131.281 127.912V126.796H132.205V131.92ZM131.317 129.592C131.317 129.272 131.253 128.984 131.125 128.728C130.997 128.464 130.825 128.24 130.609 128.056C130.401 127.872 130.161 127.732 129.889 127.636C129.617 127.532 129.333 127.48 129.037 127.48C128.741 127.48 128.461 127.528 128.197 127.624C127.941 127.72 127.713 127.86 127.513 128.044C127.321 128.228 127.169 128.452 127.057 128.716C126.945 128.972 126.889 129.26 126.889 129.58C126.889 129.9 126.945 130.192 127.057 130.456C127.177 130.712 127.333 130.936 127.525 131.128C127.725 131.312 127.953 131.456 128.209 131.56C128.473 131.656 128.749 131.704 129.037 131.704C129.333 131.704 129.617 131.656 129.889 131.56C130.161 131.456 130.401 131.312 130.609 131.128C130.825 130.944 130.997 130.724 131.125 130.468C131.253 130.204 131.317 129.912 131.317 129.592Z" fill="#0077B6"/>
<path d="M124.229 125.44H123.173V124.42H124.229V125.44ZM124.157 133H123.233V126.796H124.157V133Z" fill="#0077B6"/>
<path d="M119.984 129.221H115.136V133.001H114.188V124.601H115.136V128.333H119.984V124.601H120.932V133.001H119.984V129.221Z" fill="#0077B6"/>
<path d="M85.1666 0H82.2031V26.4876H85.1666V0Z" fill="#0077B6" fill-opacity="0.3"/>
<path d="M73.2415 0.640841L70.3081 1.0625L74.0769 27.2806L77.0102 26.859L73.2415 0.640841Z" fill="#0077B6" fill-opacity="0.3"/>
<path d="M61.5359 2.98558L58.6924 3.82031L66.1532 29.2355L68.9967 28.4007L61.5359 2.98558Z" fill="#0077B6" fill-opacity="0.3"/>
<path d="M50.2732 6.93471L47.5776 8.16602L58.5829 32.2591L61.2785 31.0278L50.2732 6.93471Z" fill="#0077B6" fill-opacity="0.3"/>
<path d="M39.6932 12.4807L37.2002 14.083L51.5215 36.3651L54.0145 34.7628L39.6932 12.4807Z" fill="#0077B6" fill-opacity="0.3"/>
<path d="M30.0048 19.4772L27.7651 21.418L45.1111 41.4357L47.3508 39.495L30.0048 19.4772Z" fill="#0077B6" fill-opacity="0.3"/>
<path d="M21.4036 27.7652L19.4629 30.0049L39.4806 47.3509L41.4213 45.1113L21.4036 27.7652Z" fill="#0077B6" fill-opacity="0.3"/>
<path d="M14.0799 37.1994L12.4775 39.6924L34.7597 54.0137L36.362 51.5207L14.0799 37.1994Z" fill="#0077B6" fill-opacity="0.3"/>
<path d="M8.17906 47.5778L6.94775 50.2734L31.0409 61.2787L32.2722 58.5831L8.17906 47.5778Z" fill="#0077B6" fill-opacity="0.3"/>
<path d="M3.80398 58.6887L2.96924 61.5322L28.3844 68.993L29.2191 66.1495L3.80398 58.6887Z" fill="#0077B6" fill-opacity="0.3"/>
<path d="M1.06033 70.3088L0.638672 73.2422L26.8568 77.0109L27.2785 74.0776L1.06033 70.3088Z" fill="#0077B6" fill-opacity="0.3"/>
<path d="M0 82.2045L0 85.168H26.4876V82.2045H0Z" fill="#0077B6" fill-opacity="0.3"/>
<path d="M0.643771 94.1262L1.06543 97.0596L27.2836 93.2908L26.8619 90.3575L0.643771 94.1262Z" fill="#0077B6" fill-opacity="0.3"/>
<path d="M2.97532 105.848L3.81006 108.691L29.2252 101.231L28.3905 98.3871L2.97532 105.848Z" fill="#0077B6" fill-opacity="0.3"/>
<path d="M6.93862 117.102L8.16992 119.798L32.263 108.793L31.0317 106.097L6.93862 117.102Z" fill="#0077B6" fill-opacity="0.3"/>
<path d="M159.187 119.785L160.418 117.09L136.325 106.085L135.094 108.78L159.187 119.785Z" fill="#0077B6" fill-opacity="0.3"/>
<path d="M163.572 108.695L164.407 105.852L138.992 98.3908L138.157 101.234L163.572 108.695Z" fill="#0077B6" fill-opacity="0.3"/>
<path d="M166.313 97.0711L166.735 94.1377L140.517 90.3689L140.095 93.3023L166.313 97.0711Z" fill="#0077B6" fill-opacity="0.3"/>
<path d="M167.371 85.1676V82.2041H140.883V85.1676H167.371Z" fill="#0077B6" fill-opacity="0.3"/>
<path d="M166.733 73.2439L166.311 70.3105L140.093 74.0793L140.515 77.0127L166.733 73.2439Z" fill="#0077B6" fill-opacity="0.3"/>
<path d="M164.391 61.5261L163.556 58.6826L138.141 66.1434L138.976 68.9869L164.391 61.5261Z" fill="#0077B6" fill-opacity="0.3"/>
<path d="M160.437 50.2698L159.206 47.5742L135.113 58.5795L136.344 61.2751L160.437 50.2698Z" fill="#0077B6" fill-opacity="0.3"/>
<path d="M154.894 39.6844L153.292 37.1914L131.009 51.5127L132.612 54.0057L154.894 39.6844Z" fill="#0077B6" fill-opacity="0.3"/>
<path d="M147.903 30.0014L145.962 27.7617L125.944 45.1077L127.885 47.3474L147.903 30.0014Z" fill="#0077B6" fill-opacity="0.3"/>
<path d="M139.603 21.4114L137.363 19.4707L120.017 39.4884L122.257 41.4292L139.603 21.4114Z" fill="#0077B6" fill-opacity="0.3"/>
<path d="M130.18 14.1004L127.687 12.498L113.365 34.7802L115.858 36.3825L130.18 14.1004Z" fill="#0077B6" fill-opacity="0.3"/>
<path d="M119.798 8.18248L117.103 6.95117L106.097 31.0443L108.793 32.2756L119.798 8.18248Z" fill="#0077B6" fill-opacity="0.3"/>
<path d="M108.68 3.80739L105.836 2.97266L98.3756 28.3878L101.219 29.2225L108.68 3.80739Z" fill="#0077B6" fill-opacity="0.3"/>
<path d="M97.0642 1.06131L94.1309 0.639648L90.3621 26.8578L93.2955 27.2794L97.0642 1.06131Z" fill="#0077B6" fill-opacity="0.3"/>
</svg>
